Coordinates
version=1
nRows=24
nColumns=19
inDegrees=yes

Units are S.I. units (second, meters, Newtons, ...)
If the header above contains a line with 'inDegrees', this indicates whether rotational values are in degrees (yes) or radians (no).

endheader
time	pelvis_tilt	pelvis_list	pelvis_rotation	pelvis_tx	pelvis_ty	pelvis_tz	hip_flexion_r	hip_adduction_r	hip_rotation_r	knee_angle_r	knee_angle_r_beta	ankle_angle_r	hip_flexion_l	hip_adduction_l	hip_rotation_l	knee_angle_l	knee_angle_l_beta	ankle_angle_l
     11.49333333	     -4.57751640	     -4.71760787	      1.23127835	      2.37462596	      1.06586748	      1.03557663	     25.21865716	      6.37454723	     -2.98678063	     17.58990455	      0.30700175	     -8.08273307	     -7.91786004	     -8.12937970	     -4.46297353	     46.82231442	      0.81720355	    -18.76771085
     11.50000000	     -3.98136567	     -5.31794866	      1.42462026	      2.37376804	      1.06202250	      1.03553817	     24.74297171	      7.03986169	     -3.40218690	     18.79185309	      0.32797971	     -7.31067914	     -7.36220751	     -8.87102675	     -3.40503392	     50.01640508	      0.87295095	    -17.90647967
     11.50666667	     -3.77607322	     -5.70831755	      1.50993604	      2.37277578	      1.05733297	      1.03568691	     24.80900488	      7.51091927	     -3.64578704	     20.50648264	      0.35790564	     -6.02253591	     -6.31228039	     -9.33375564	     -2.35247126	     53.27812095	      0.92987863	    -17.17060342
     11.51333333	     -3.04885391	     -6.09338110	      1.33184363	      2.37151234	      1.05284457	      1.03605169	     24.30980950	      8.12599147	     -3.57423653	     22.43188533	      0.39151026	     -4.27581236	     -5.88542685	     -9.80704927	     -1.79042056	     56.44891801	      0.98521948	    -16.47533934
     11.52000000	     -3.34669078	     -6.42429830	      1.67137674	      2.37017656	      1.04713424	      1.03583414	     24.91982989	      8.43192748	     -3.84085135	     24.49265199	      0.42747742	     -2.28930298	     -4.00435951	    -10.12859917	     -0.31473325	     59.86934246	      1.04491715	    -15.97954290
     11.52666667	     -2.57227664	     -6.82153358	      1.52815604	      2.36867897	      1.04239919	      1.03599235	     24.28375235	      9.10262490	     -3.55485588	     26.56100241	      0.46357694	      0.09668719	     -3.51110442	    -10.57948834	      0.26414631	     62.98300532	      1.09926082	    -15.53833788
     11.53333333	     -2.00512191	     -7.21328305	      1.51556627	      2.36688424	      1.03738549	      1.03598738	     23.87255620	      9.70520849	     -3.41751930	     28.68863538	      0.50071115	      2.58587934	     -2.64813089	    -10.99186919	      1.05659015	     66.12850336	      1.15416011	    -15.15330869
     11.54000000	     -2.77876059	     -7.37489778	      2.04825847	      2.36482680	      1.03095030	      1.03533903	     24.95946413	      9.75142182	     -3.80377568	     30.90204060	      0.53934235	      5.11442577	      0.08975799	    -11.05683698	      2.70010856	     69.56022850	      1.21405502	    -14.83713721
     11.54666667	     -2.06501833	     -7.67857540	      1.91217646	      2.36273476	      1.02635785	      1.03525758	     24.26311469	     10.36429443	     -3.44113901	     32.88665708	      0.57398045	      7.70393412	      0.83517489	    -11.39421442	      3.20883913	     72.47597824	      1.26494445	    -14.51590823
     11.55333333	     -2.58443040	     -7.81853793	      2.21096712	      2.36030238	      1.02063713	      1.03451798	     24.96265343	     10.49633148	     -3.59576157	     34.92093602	      0.60948531	     10.07633187	      3.28278962	    -11.36572055	      4.49628142	     75.58327156	      1.31917695	    -14.17832859
     11.56000000	     -1.88089929	     -8.01595711	      2.06186297	      2.35794152	      1.01668996	      1.03422097	     24.14753668	     11.00853629	     -3.18484715	     36.65697177	      0.63978485	     12.36976633	      4.12017533	    -11.59345740	      4.90013516	     78.23071166	      1.36538349	    -13.80230019
     11.56666667	     -2.53215207	     -8.01350207	      2.27585803	      2.35529753	      1.01158676	      1.03331990	     24.86514062	     10.99717111	     -3.24912879	     38.44879087	      0.67105799	     14.33943152	      6.75780458	    -11.36795072	      6.00181088	     81.02425219	      1.41413997	    -13.29543288
     11.57333333	     -2.52520109	     -8.00503309	      2.24964576	      2.35275279	      1.00773662	      1.03263189	     24.70704222	     11.14839948	     -2.98911398	     39.96533480	      0.69752668	     16.10545617	      8.52436690	    -11.26912125	      6.58294435	     83.46256750	      1.45669661	    -12.69246960
     11.58000000	     -1.94288351	     -7.98348320	      2.13434271	      2.35034043	      1.00511416	      1.03204568	     23.76345820	     11.37227617	     -2.57868606	     41.19651039	      0.71901475	     17.68592810	      9.57266825	    -11.30309799	      6.82097702	     85.57382209	      1.49354495	    -12.01641632
     11.58666667	     -2.49210859	     -7.71173688	      2.27054244	      2.34788493	      1.00168857	      1.03108873	     24.04195781	     11.10002017	     -2.47452597	     42.41497422	      0.74028095	     18.99672914	     12.04819142	    -10.83704024	      7.50801614	     87.68143866	      1.53032980	    -11.23475604
     11.59333333	     -1.99050825	     -7.57270109	      2.17680472	      2.34563311	      1.00018557	      1.03043419	     22.92874895	     11.19323528	     -1.95790603	     43.17213065	      0.75349582	     20.02442661	     13.19279894	    -10.76193946	      7.64121709	     89.35170812	      1.55948150	    -10.51231127
     11.60000000	     -1.63938648	     -7.32265492	      2.11741541	      2.34365491	      0.99896794	      1.02983547	     21.85751218	     11.09426516	     -1.58211059	     43.76499768	      0.76384331	     21.04434106	     14.47553290	    -10.62601038	      7.67752813	     90.79797330	      1.58472359	     -9.52019405
     11.60666667	     -1.40654331	     -7.00545071	      2.07301300	      2.34181125	      0.99821892	      1.02915926	     20.76794681	     10.89030011	     -1.21185105	     44.10575118	      0.76979058	     21.88107122	     15.86522159	    -10.38455964	      7.68406413	     92.01795594	      1.60601630	     -8.53002041
     11.61333333	     -1.37857946	     -6.54749239	      2.10193407	      2.34040911	      0.99786914	      1.02860635	     19.74441783	     10.47638695	     -0.96001178	     44.21954319	      0.77177662	     22.61931421	     17.42767524	    -10.05472278	      7.59603713	     92.95330439	      1.62234121	     -7.47992087
     11.62000000	     -1.95347975	     -5.78859954	      2.29998272	      2.33884732	      0.99744161	      1.02781710	     19.32235544	      9.62630023	     -0.86337180	     44.25274428	      0.77235609	     23.22384999	     19.70242298	     -9.17268908	      7.67776100	     93.72034982	      1.63572868	     -6.67068688
     11.62666667	     -1.96591843	     -5.43345883	      2.25486566	      2.33775973	      0.99816858	      1.02745770	     18.04059498	      9.36407301	     -0.51785868	     43.80128327	      0.76447661	     23.62503802	     21.19531172	     -9.00218809	      7.39665787	     94.15954438	      1.64339407	     -5.81080623
     11.63333333	     -2.06727071	     -5.02890658	      2.20060669	      2.33690501	      0.99932719	      1.02715359	     16.73252039	      9.01548758	     -0.23382191	     43.14386918	      0.75300257	     23.92688033	     22.69999466	     -8.78643645	      7.01916769	     94.33843744	      1.64651634	     -4.96767555
     11.64000000	     -2.24305047	     -4.57992654	      2.14592296	      2.33619807	      1.00092550	      1.02696167	     15.39405654	      8.62035633	      0.07258743	     42.27062448	      0.73776157	     24.08351431	     24.20224726	     -8.52307085	      6.56852035	     94.26849302	      1.64529558	     -4.16536174
     11.64666667	     -1.67247535	     -3.83340668	      1.83874045	      2.33570052	      1.00414018	      1.02709923	     13.08124380	      8.01099950	      0.75662521	     41.15349830	      0.71826404	     24.09085962	     24.59982484	     -8.08326238	      5.64116108	     93.75435368	      1.63632216	     -3.36792838
